<svg id="Layer_1" data-name="Layer 1" xmlns="http://www.w3.org/2000/svg" viewBox="0 0 236.76 52.89"><title>Logo footer</title><g id="Group_1" data-name="Group 1"><path id="Path_20" data-name="Path 20" d="M878.54,209.83a.08.08,0,0,0,.06,0l-.08.08,0,0Z" transform="translate(-848.51 -157)" fill="#fed23d"/><path id="Subtraction_2" data-name="Subtraction 2" d="M875.29,207.27h0l-22-22.26a16.38,16.38,0,0,1-4.52-8.67,16.92,16.92,0,0,1,.92-9.15,16.33,16.33,0,0,1,5.24-7,15.44,15.44,0,0,1,8.73-3.13h.89a19.09,19.09,0,0,1,7.71,1.6,19.34,19.34,0,0,1,6.25,4.37,19.34,19.34,0,0,1,6.25-4.37,19.08,19.08,0,0,1,7.7-1.6h.89a15.42,15.42,0,0,1,8.74,3.13,16.32,16.32,0,0,1,5.23,7,16.91,16.91,0,0,1,.93,9.15,16.36,16.36,0,0,1-4.53,8.67L894,194.86a44.32,44.32,0,0,0,2.13-6.55,97.82,97.82,0,0,0,2.08-15.43h0c0-.63.11-1.27.16-1.9-.05.13-.09.26-.14.41l0,0a70.63,70.63,0,0,1-4,9.57c-2.27,4.29-4.52,6.47-6.68,6.47a3.52,3.52,0,0,1-1.62-.42c-.78-.4-8-7.2-21.36-20.2l-.53-.51-.6-.58a82.21,82.21,0,0,1,10.15,15.6,41.74,41.74,0,0,1,4.16,13.11,19.23,19.23,0,0,1-2.48,12.8ZM887,173.19a3.7,3.7,0,1,0,3.53,3.7,3.61,3.61,0,0,0-3.53-3.7Z" transform="translate(-848.51 -157)" fill="#fed23d"/></g><g style="isolation:isolate"><path d="M924.27,182.5a5,5,0,0,1-2-1.91,5.44,5.44,0,0,1-.72-2.83v-4.92a5.53,5.53,0,0,1,.72-2.84,4.85,4.85,0,0,1,2-1.9,6.94,6.94,0,0,1,6,0,5,5,0,0,1,2,1.8,4.58,4.58,0,0,1,.72,2.52v0a.33.33,0,0,1-.37.38h-2.36a.49.49,0,0,1-.27-.06c-.07,0-.1-.08-.1-.12v-.15a2.3,2.3,0,0,0-.71-1.71,2.86,2.86,0,0,0-3.77,0,2.66,2.66,0,0,0-.71,1.93v5.1a2.53,2.53,0,0,0,.77,1.93,2.7,2.7,0,0,0,2,.73,2.65,2.65,0,0,0,1.83-.6,2.13,2.13,0,0,0,.68-1.68v-1c0-.09,0-.13-.13-.13h-2.33a.34.34,0,0,1-.38-.38V175a.33.33,0,0,1,.38-.37h5.15a.32.32,0,0,1,.37.37v2.79a5.75,5.75,0,0,1-.7,2.91,4.69,4.69,0,0,1-2,1.88,6.61,6.61,0,0,1-3,.65A6.4,6.4,0,0,1,924.27,182.5Z" transform="translate(-848.51 -157)" fill="#fff"/><path d="M937.66,182.54a5.16,5.16,0,0,1-2-2,5.79,5.79,0,0,1-.72-2.91V173a5.65,5.65,0,0,1,.72-2.88,5,5,0,0,1,2-1.95,6.38,6.38,0,0,1,3-.7,6.45,6.45,0,0,1,3.05.7,5,5,0,0,1,2,1.95,5.65,5.65,0,0,1,.72,2.88v4.71a5.85,5.85,0,0,1-.72,2.92,5,5,0,0,1-2,2,6.44,6.44,0,0,1-3.05.69A6.26,6.26,0,0,1,937.66,182.54Zm5-2.73a2.8,2.8,0,0,0,.75-2.05v-4.84a2.86,2.86,0,0,0-.74-2,2.58,2.58,0,0,0-2-.78,2.55,2.55,0,0,0-1.94.78,2.86,2.86,0,0,0-.74,2v4.84a2.83,2.83,0,0,0,.74,2.05,2.58,2.58,0,0,0,1.94.77A2.62,2.62,0,0,0,942.64,179.81Z" transform="translate(-848.51 -157)" fill="#fff"/><path d="M948.87,182.63V168a.33.33,0,0,1,.37-.37h2.36a.33.33,0,0,1,.37.37v12.24a.12.12,0,0,0,.13.13h7.06a.33.33,0,0,1,.38.37v1.92a.33.33,0,0,1-.38.37h-9.92A.32.32,0,0,1,948.87,182.63Z" transform="translate(-848.51 -157)" fill="#fff"/><path d="M961.45,182.63V168a.34.34,0,0,1,.38-.37h5.39a6.87,6.87,0,0,1,2.89.58,4.49,4.49,0,0,1,1.92,1.64,4.38,4.38,0,0,1,.69,2.44v6.08a4.36,4.36,0,0,1-.69,2.44,4.49,4.49,0,0,1-1.92,1.64,6.72,6.72,0,0,1-2.89.58h-5.39A.33.33,0,0,1,961.45,182.63Zm3.24-2.29h2.64a2.11,2.11,0,0,0,1.63-.68,2.67,2.67,0,0,0,.65-1.83v-5.06A2.61,2.61,0,0,0,969,171a2.17,2.17,0,0,0-1.69-.69h-2.61a.12.12,0,0,0-.14.13v9.82A.12.12,0,0,0,964.69,180.34Z" transform="translate(-848.51 -157)" fill="#fff"/><path d="M985.37,170.26h-7.09a.12.12,0,0,0-.13.13v3.37c0,.09,0,.13.13.13h4.6a.33.33,0,0,1,.37.38v1.91a.32.32,0,0,1-.37.37h-4.6c-.09,0-.13,0-.13.14v3.52a.12.12,0,0,0,.13.13h7.09a.33.33,0,0,1,.37.37v1.92a.33.33,0,0,1-.37.37h-10a.32.32,0,0,1-.37-.37V168a.33.33,0,0,1,.37-.37h10a.33.33,0,0,1,.37.37v1.92A.33.33,0,0,1,985.37,170.26Z" transform="translate(-848.51 -157)" fill="#fff"/><path d="M987.9,182.63V168a.33.33,0,0,1,.37-.37h2.27a.5.5,0,0,1,.44.24l5.5,9.16c0,.05.06.08.09.06s.06-.05.06-.11v-9a.33.33,0,0,1,.37-.37h2.31a.34.34,0,0,1,.38.37v14.66a.33.33,0,0,1-.38.37h-2.24a.52.52,0,0,1-.44-.26l-5.52-9.24c0-.06-.07-.08-.1-.07a.11.11,0,0,0-.06.11l0,9.09a.33.33,0,0,1-.38.37h-2.33A.32.32,0,0,1,987.9,182.63Z" transform="translate(-848.51 -157)" fill="#fff"/><path d="M1015.33,167.6h2.35a.34.34,0,0,1,.38.37v14.66a.33.33,0,0,1-.38.37h-2.35a.32.32,0,0,1-.37-.37v-5.94a.13.13,0,0,0-.14-.14H1010a.12.12,0,0,0-.13.14v5.94a.32.32,0,0,1-.37.37h-2.36a.33.33,0,0,1-.37-.37V168a.33.33,0,0,1,.37-.37h2.36a.33.33,0,0,1,.37.37v5.79a.12.12,0,0,0,.13.13h4.82c.09,0,.14,0,.14-.13V168A.33.33,0,0,1,1015.33,167.6Z" transform="translate(-848.51 -157)" fill="#fff"/><path d="M1030.91,170.26h-7.09a.12.12,0,0,0-.13.13v3.37c0,.09,0,.13.13.13h4.6a.33.33,0,0,1,.37.38v1.91a.32.32,0,0,1-.37.37h-4.6c-.09,0-.13,0-.13.14v3.52a.12.12,0,0,0,.13.13h7.09a.33.33,0,0,1,.37.37v1.92a.33.33,0,0,1-.37.37h-10a.32.32,0,0,1-.37-.37V168a.33.33,0,0,1,.37-.37h10a.33.33,0,0,1,.37.37v1.92A.33.33,0,0,1,1030.91,170.26Z" transform="translate(-848.51 -157)" fill="#fff"/><path d="M1042.92,182.69l-.62-2a.12.12,0,0,0-.13-.11h-5.39a.12.12,0,0,0-.13.11l-.62,2a.41.41,0,0,1-.42.31h-2.55a.3.3,0,0,1-.31-.42l4.69-14.67a.41.41,0,0,1,.42-.31h3.23a.41.41,0,0,1,.42.31l4.69,14.67a.44.44,0,0,1,0,.13.26.26,0,0,1-.09.21.32.32,0,0,1-.24.08h-2.56A.4.4,0,0,1,1042.92,182.69Zm-5.39-4.55h3.89c.09,0,.13,0,.11-.15l-2-6.71c0-.06,0-.09-.08-.09s-.07,0-.09.09l-2,6.71C1037.4,178.09,1037.44,178.14,1037.53,178.14Z" transform="translate(-848.51 -157)" fill="#fff"/><path d="M1056.29,182.71l-2.7-6a.16.16,0,0,0-.16-.11h-2a.12.12,0,0,0-.13.13v5.88a.33.33,0,0,1-.38.37h-2.35a.32.32,0,0,1-.37-.37V168a.32.32,0,0,1,.37-.37h6.18a5.08,5.08,0,0,1,2.48.58,4.13,4.13,0,0,1,1.65,1.64,4.9,4.9,0,0,1,.58,2.42,4.36,4.36,0,0,1-.75,2.57,4,4,0,0,1-2.07,1.52s-.07,0-.08.08a.08.08,0,0,0,0,.1l2.9,6.07a.31.31,0,0,1,.07.2.2.2,0,0,1-.09.17.36.36,0,0,1-.24.07h-2.49A.48.48,0,0,1,1056.29,182.71Zm-5-12.32v3.7c0,.09,0,.13.13.13h2.86a2.13,2.13,0,0,0,1.51-.54,1.82,1.82,0,0,0,.58-1.42,1.92,1.92,0,0,0-.58-1.44,2.1,2.1,0,0,0-1.51-.56h-2.86A.12.12,0,0,0,1051.3,170.39Z" transform="translate(-848.51 -157)" fill="#fff"/><path d="M1072.57,168v1.94a.33.33,0,0,1-.37.38h-3.81c-.09,0-.13,0-.13.13v12.21a.32.32,0,0,1-.37.37h-2.36a.32.32,0,0,1-.37-.37V170.42a.12.12,0,0,0-.13-.13h-3.7a.33.33,0,0,1-.37-.38V168a.33.33,0,0,1,.37-.37h10.87A.33.33,0,0,1,1072.57,168Z" transform="translate(-848.51 -157)" fill="#fff"/><path d="M1076.62,182.6a4.53,4.53,0,0,1-2-1.6,4.2,4.2,0,0,1-.71-2.42v-.37a.34.34,0,0,1,.38-.38h2.31c.25,0,.37.1.37.29v.3a1.8,1.8,0,0,0,.81,1.49,3.4,3.4,0,0,0,2.1.6,2.54,2.54,0,0,0,1.72-.49,1.55,1.55,0,0,0,.56-1.22,1.21,1.21,0,0,0-.35-.89,3.1,3.1,0,0,0-.94-.64c-.4-.18-1-.44-1.92-.76a19.24,19.24,0,0,1-2.51-1,5.39,5.39,0,0,1-1.71-1.44,3.59,3.59,0,0,1-.71-2.26,3.94,3.94,0,0,1,.69-2.31,4.26,4.26,0,0,1,1.9-1.52,7,7,0,0,1,2.78-.53,7.13,7.13,0,0,1,3,.6,4.89,4.89,0,0,1,2.06,1.66,4.27,4.27,0,0,1,.74,2.48v.22a.34.34,0,0,1-.38.37h-2.31c-.24,0-.37-.07-.37-.22v-.22a2,2,0,0,0-.76-1.57,3.05,3.05,0,0,0-2.08-.65,2.61,2.61,0,0,0-1.63.44,1.43,1.43,0,0,0-.57,1.21,1.35,1.35,0,0,0,.33.92,3,3,0,0,0,1,.68c.45.21,1.14.47,2.08.79s1.84.72,2.44,1a4.54,4.54,0,0,1,1.62,1.31,3.44,3.44,0,0,1,.72,2.26,4,4,0,0,1-.7,2.36,4.49,4.49,0,0,1-2,1.56,7.6,7.6,0,0,1-3,.55A7.28,7.28,0,0,1,1076.62,182.6Z" transform="translate(-848.51 -157)" fill="#fff"/></g><g style="isolation:isolate"><path d="M922.18,202.36a2.71,2.71,0,0,1-.77-2v-4.52a2.66,2.66,0,0,1,.77-2,2.83,2.83,0,0,1,2.05-.75,2.9,2.9,0,0,1,2.07.74,2.6,2.6,0,0,1,.78,2v.13a.13.13,0,0,1-.14.14l-.72,0c-.09,0-.14,0-.14-.13v-.19a1.79,1.79,0,0,0-.51-1.32,1.83,1.83,0,0,0-3.17,1.32v4.64a1.8,1.8,0,0,0,.5,1.33,2,2,0,0,0,2.67,0,1.76,1.76,0,0,0,.51-1.32v-.19c0-.09,0-.13.14-.13l.72,0c.09,0,.14.05.14.15v.09a2.61,2.61,0,0,1-.78,2,2.86,2.86,0,0,1-2.07.75A2.83,2.83,0,0,1,922.18,202.36Z" transform="translate(-848.51 -157)" fill="#aaa"/><path d="M933.14,196.44a2.43,2.43,0,0,1,.57,1.7v4.72a.12.12,0,0,1-.14.14h-.71a.12.12,0,0,1-.14-.14v-4.58a1.72,1.72,0,0,0-.38-1.16,1.3,1.3,0,0,0-1-.43,1.33,1.33,0,0,0-1,.44,1.67,1.67,0,0,0-.4,1.18v4.55a.13.13,0,0,1-.14.14H929a.13.13,0,0,1-.14-.14v-9.52a.13.13,0,0,1,.14-.14h.72a.13.13,0,0,1,.14.14v3.26s0,0,0,0,0,0,0,0a1.88,1.88,0,0,1,1.68-.81A2,2,0,0,1,933.14,196.44Z" transform="translate(-848.51 -157)" fill="#aaa"/><path d="M939.63,196.45a2.34,2.34,0,0,1,.63,1.71v4.7a.12.12,0,0,1-.14.14h-.71a.13.13,0,0,1-.14-.14v-.5s0,0,0,0,0,0,0,0a2,2,0,0,1-.78.59,2.83,2.83,0,0,1-1.07.19,2.42,2.42,0,0,1-1.5-.47,1.84,1.84,0,0,1-.63-1.56,2,2,0,0,1,.73-1.7,3.07,3.07,0,0,1,2-.58h1.3s.06,0,.06-.05v-.54a1.64,1.64,0,0,0-.36-1.12,1.31,1.31,0,0,0-1-.42,1.41,1.41,0,0,0-.91.28,1.06,1.06,0,0,0-.44.72.13.13,0,0,1-.15.12l-.77,0a.14.14,0,0,1-.11,0,.12.12,0,0,1,0-.1,1.88,1.88,0,0,1,.76-1.31,2.72,2.72,0,0,1,1.65-.5A2.37,2.37,0,0,1,939.63,196.45Zm-.87,5.41a1.26,1.26,0,0,0,.51-1.07v-1.13a.05.05,0,0,0-.06-.06H938a2,2,0,0,0-1.27.37,1.26,1.26,0,0,0-.48,1.06,1.09,1.09,0,0,0,.37.91,1.45,1.45,0,0,0,.95.31A2,2,0,0,0,938.76,201.86Z" transform="translate(-848.51 -157)" fill="#aaa"/><path d="M945.42,196a.15.15,0,0,1,.07.17l-.17.73c0,.09-.07.12-.17.09a1.13,1.13,0,0,0-.49-.1h-.17a1.3,1.3,0,0,0-1,.53,2,2,0,0,0-.41,1.26v4.16a.12.12,0,0,1-.14.14h-.71a.13.13,0,0,1-.14-.14v-6.8a.12.12,0,0,1,.14-.14h.71c.1,0,.14,0,.14.14V197s0,0,0,0,0,0,0,0a2.08,2.08,0,0,1,.64-.83,1.51,1.51,0,0,1,.94-.3A1.47,1.47,0,0,1,945.42,196Z" transform="translate(-848.51 -157)" fill="#aaa"/><path d="M946.75,194.41a.8.8,0,0,1-.21-.57.79.79,0,0,1,1.34-.56.73.73,0,0,1,.22.56.77.77,0,0,1-.22.57.84.84,0,0,1-1.13,0Zm0,8.45v-6.8a.12.12,0,0,1,.14-.14h.72a.12.12,0,0,1,.14.14v6.8a.13.13,0,0,1-.14.14h-.72A.13.13,0,0,1,946.8,202.86Z" transform="translate(-848.51 -157)" fill="#aaa"/><path d="M952.63,196.7H951.3a.05.05,0,0,0-.06.06V201a1.27,1.27,0,0,0,.26.91,1.1,1.1,0,0,0,.83.26h.24a.13.13,0,0,1,.14.14v.59a.13.13,0,0,1-.14.14h-.43a2.21,2.21,0,0,1-1.39-.37,1.64,1.64,0,0,1-.48-1.38v-4.5s0-.06,0-.06h-.7a.12.12,0,0,1-.14-.14v-.5c0-.1,0-.14.14-.14h.7s0,0,0-.06v-1.6a.13.13,0,0,1,.14-.14h.69a.13.13,0,0,1,.14.14v1.6a.05.05,0,0,0,.06.06h1.33a.12.12,0,0,1,.14.14v.5A.13.13,0,0,1,952.63,196.7Z" transform="translate(-848.51 -157)" fill="#aaa"/><path d="M954,205.8v-.7a.13.13,0,0,1,.14-.14h0a1.58,1.58,0,0,0,.76-.17,1.14,1.14,0,0,0,.46-.54,6.13,6.13,0,0,0,.39-1.21s0,0,0-.08l-2.09-6.89v0c0-.08,0-.11.14-.11h.75a.15.15,0,0,1,.16.12l1.52,5.59s0,0,0,0,0,0,0,0l1.53-5.59a.14.14,0,0,1,.15-.12h.74a.12.12,0,0,1,.11,0,.13.13,0,0,1,0,.11l-2.28,7.55A6.6,6.6,0,0,1,956,205a1.54,1.54,0,0,1-.69.63,3.25,3.25,0,0,1-1.17.17H954Z" transform="translate(-848.51 -157)" fill="#aaa"/><path d="M968.35,194.07h-4.19s-.06,0-.06.05v3.48s0,.05.06.05H967c.1,0,.15,0,.15.14v.59c0,.09,0,.14-.15.14h-2.81a.05.05,0,0,0-.06.06v4.28a.12.12,0,0,1-.14.14h-.71a.13.13,0,0,1-.14-.14v-9.52a.13.13,0,0,1,.14-.14h5.1a.13.13,0,0,1,.14.14v.59A.13.13,0,0,1,968.35,194.07Z" transform="translate(-848.51 -157)" fill="#aaa"/><path d="M970,202.56a2.36,2.36,0,0,1-.8-1.49,15.38,15.38,0,0,1-.08-1.62,14.56,14.56,0,0,1,.08-1.6,2.28,2.28,0,0,1,.79-1.48,2.79,2.79,0,0,1,3.38,0,2.28,2.28,0,0,1,.79,1.48,11,11,0,0,1,.08,1.6,11.26,11.26,0,0,1-.08,1.62,2.3,2.3,0,0,1-.79,1.49,2.56,2.56,0,0,1-1.69.55A2.52,2.52,0,0,1,970,202.56Zm2.7-.69a1.52,1.52,0,0,0,.49-1,13.19,13.19,0,0,0,.06-1.43,12.94,12.94,0,0,0-.06-1.43,1.46,1.46,0,0,0-.48-1,1.51,1.51,0,0,0-1-.37,1.49,1.49,0,0,0-1,.37,1.62,1.62,0,0,0-.49,1,17.07,17.07,0,0,0,0,2.86,1.51,1.51,0,0,0,.48,1,1.57,1.57,0,0,0,2,0Z" transform="translate(-848.51 -157)" fill="#aaa"/><path d="M979.9,195.92h.71a.12.12,0,0,1,.14.14v6.8a.13.13,0,0,1-.14.14h-.71a.12.12,0,0,1-.14-.14v-.54s0,0,0,0,0,0,0,0a1.77,1.77,0,0,1-1.63.8,2.2,2.2,0,0,1-1.55-.56,2.11,2.11,0,0,1-.6-1.62v-4.86c0-.1,0-.14.14-.14h.71a.12.12,0,0,1,.14.14v4.6a1.71,1.71,0,0,0,.36,1.16,1.33,1.33,0,0,0,1,.41,1.41,1.41,0,0,0,1.08-.44,1.71,1.71,0,0,0,.39-1.18v-4.55C979.76,196,979.8,195.92,979.9,195.92Z" transform="translate(-848.51 -157)" fill="#aaa"/><path d="M987,196.44a2.43,2.43,0,0,1,.57,1.7v4.72a.13.13,0,0,1-.14.14h-.72c-.09,0-.13-.05-.13-.14v-4.58a1.72,1.72,0,0,0-.38-1.16,1.32,1.32,0,0,0-1-.43,1.35,1.35,0,0,0-1.06.44,1.71,1.71,0,0,0-.39,1.18v4.55c0,.09-.05.14-.15.14h-.71a.13.13,0,0,1-.14-.14v-6.8a.12.12,0,0,1,.14-.14h.71c.1,0,.15,0,.15.14v.54s0,0,0,0a0,0,0,0,0,0,0,1.91,1.91,0,0,1,1.69-.81A2,2,0,0,1,987,196.44Z" transform="translate(-848.51 -157)" fill="#aaa"/><path d="M993.37,193.2h.71a.13.13,0,0,1,.14.14v9.52a.13.13,0,0,1-.14.14h-.71c-.1,0-.15-.05-.15-.14v-.56s0,0,0,0a.05.05,0,0,0,0,0,1.79,1.79,0,0,1-1.63.82,2,2,0,0,1-1.41-.47,2.8,2.8,0,0,1-.77-1.49,7.06,7.06,0,0,1-.18-1.62,8,8,0,0,1,.15-1.67,2.65,2.65,0,0,1,.78-1.54,2.14,2.14,0,0,1,1.5-.5,2.07,2.07,0,0,1,1,.2,1.53,1.53,0,0,1,.6.61,0,0,0,0,0,0,0s0,0,0,0v-3.28C993.22,193.25,993.27,193.2,993.37,193.2Zm-.17,6.26a5.77,5.77,0,0,0-.23-1.81,1.75,1.75,0,0,0-.45-.73,1.17,1.17,0,0,0-.77-.25,1.35,1.35,0,0,0-1.31,1,5.22,5.22,0,0,0-.27,1.84,5.32,5.32,0,0,0,.23,1.75,1.72,1.72,0,0,0,.49.78,1.27,1.27,0,0,0,.85.27,1.13,1.13,0,0,0,.79-.27,1.74,1.74,0,0,0,.46-.77A5.81,5.81,0,0,0,993.2,199.46Z" transform="translate(-848.51 -157)" fill="#aaa"/><path d="M1000.2,196.45a2.31,2.31,0,0,1,.64,1.71v4.7a.13.13,0,0,1-.14.14H1000a.12.12,0,0,1-.14-.14v-.5s0,0,0,0,0,0-.05,0a1.94,1.94,0,0,1-.79.59,2.74,2.74,0,0,1-1.06.19,2.47,2.47,0,0,1-1.51-.47,1.86,1.86,0,0,1-.62-1.56,2.07,2.07,0,0,1,.72-1.7,3.1,3.1,0,0,1,2-.58h1.3s.06,0,.06-.05v-.54a1.64,1.64,0,0,0-.36-1.12,1.31,1.31,0,0,0-1.06-.42,1.45,1.45,0,0,0-.91.28,1.09,1.09,0,0,0-.43.72c0,.08-.06.12-.16.12l-.76,0a.12.12,0,0,1-.11,0,.12.12,0,0,1,0-.1,1.84,1.84,0,0,1,.76-1.31,2.7,2.7,0,0,1,1.65-.5A2.35,2.35,0,0,1,1000.2,196.45Zm-.86,5.41a1.26,1.26,0,0,0,.51-1.07v-1.13a.05.05,0,0,0-.06-.06h-1.23a2,2,0,0,0-1.27.37,1.26,1.26,0,0,0-.48,1.06,1.11,1.11,0,0,0,.36.91,1.47,1.47,0,0,0,1,.31A2,2,0,0,0,999.34,201.86Z" transform="translate(-848.51 -157)" fill="#aaa"/><path d="M1005.32,196.7H1004a.05.05,0,0,0-.06.06V201a1.27,1.27,0,0,0,.26.91,1.13,1.13,0,0,0,.84.26h.23c.1,0,.15.05.15.14v.59c0,.09,0,.14-.15.14h-.43a2.16,2.16,0,0,1-1.38-.37,1.64,1.64,0,0,1-.48-1.38v-4.5a.05.05,0,0,0-.06-.06h-.7a.13.13,0,0,1-.14-.14v-.5a.12.12,0,0,1,.14-.14h.7a.05.05,0,0,0,.06-.06v-1.6a.13.13,0,0,1,.14-.14h.68a.12.12,0,0,1,.14.14v1.6a.05.05,0,0,0,.06.06h1.33a.12.12,0,0,1,.14.14v.5A.13.13,0,0,1,1005.32,196.7Z" transform="translate(-848.51 -157)" fill="#aaa"/><path d="M1007.11,194.41a.77.77,0,0,1-.22-.57.75.75,0,0,1,.78-.78.75.75,0,0,1,.56.22.74.74,0,0,1,.23.56.78.78,0,0,1-.23.57.79.79,0,0,1-.56.22A.77.77,0,0,1,1007.11,194.41Zm0,8.45v-6.8a.12.12,0,0,1,.14-.14h.72a.12.12,0,0,1,.14.14v6.8a.13.13,0,0,1-.14.14h-.72A.13.13,0,0,1,1007.15,202.86Z" transform="translate(-848.51 -157)" fill="#aaa"/><path d="M1011,202.56a2.31,2.31,0,0,1-.8-1.49,12.93,12.93,0,0,1-.09-1.62,12.26,12.26,0,0,1,.09-1.6,2.24,2.24,0,0,1,.79-1.48,2.51,2.51,0,0,1,1.69-.57,2.48,2.48,0,0,1,1.68.57,2.19,2.19,0,0,1,.79,1.48,10.67,10.67,0,0,1,.09,1.6,11,11,0,0,1-.09,1.62,2.22,2.22,0,0,1-.79,1.49,2.84,2.84,0,0,1-3.36,0Zm2.69-.69a1.53,1.53,0,0,0,.5-1,13.66,13.66,0,0,0,.05-1.43,13.43,13.43,0,0,0-.05-1.43,1.56,1.56,0,0,0-.48-1,1.62,1.62,0,0,0-2.06,0,1.62,1.62,0,0,0-.49,1c0,.34,0,.81,0,1.43s0,1.09,0,1.43a1.49,1.49,0,0,0,1.52,1.36A1.44,1.44,0,0,0,1013.67,201.87Z" transform="translate(-848.51 -157)" fill="#aaa"/><path d="M1021.29,196.44a2.42,2.42,0,0,1,.56,1.7v4.72a.12.12,0,0,1-.14.14H1021a.13.13,0,0,1-.14-.14v-4.58a1.72,1.72,0,0,0-.38-1.16,1.29,1.29,0,0,0-1-.43,1.35,1.35,0,0,0-1.06.44,1.67,1.67,0,0,0-.4,1.18v4.55a.13.13,0,0,1-.14.14h-.71a.12.12,0,0,1-.14-.14v-6.8c0-.1,0-.14.14-.14h.71a.12.12,0,0,1,.14.14v.54s0,0,0,0,0,0,0,0a1.88,1.88,0,0,1,1.68-.81A2,2,0,0,1,1021.29,196.44Z" transform="translate(-848.51 -157)" fill="#aaa"/></g></svg>