<svg id="Layer_1" data-name="Layer 1" xmlns="http://www.w3.org/2000/svg" viewBox="0 0 200 170"><title>Logo background</title><rect id="Rectangle_108" data-name="Rectangle 108" width="200" height="170" fill="#fed23d"/><g id="Group_1" data-name="Group 1"><path id="Path_20" data-name="Path 20" d="M867,734.15l.06,0-.09.09,0,0Z" transform="translate(-767 -652.5)" fill="#060606"/><path id="Subtraction_1" data-name="Subtraction 1" d="M863.24,741.58h0l-25.66-26.16a19.3,19.3,0,0,1-5.29-10.23,20,20,0,0,1,1.12-10.8,19.15,19.15,0,0,1,6.11-8.22,17.91,17.91,0,0,1,10.16-3.65h.19l.85,0a22.45,22.45,0,0,1,16.28,7,22.54,22.54,0,0,1,7.29-5.13,22.07,22.07,0,0,1,9-1.89h1a18,18,0,0,1,10.16,3.65,19.15,19.15,0,0,1,6.11,8.22,20,20,0,0,1,1.12,10.8,19.3,19.3,0,0,1-5.29,10.23L885.07,727a51,51,0,0,0,2.48-7.69A116.45,116.45,0,0,0,890,701.09V701c.06-.7.11-1.4.17-2.09l-.14.42,0,.08a82.69,82.69,0,0,1-4.62,11.24c-2.65,5.06-5.28,7.63-7.8,7.63a4,4,0,0,1-1.89-.49c-.9-.47-9.28-8.45-24.9-23.72l-1.33-1.3a95.4,95.4,0,0,1,11.83,18.34,49.53,49.53,0,0,1,4.86,15.42c.68,5.79-.29,10.85-2.9,15Zm13.83-39.76a3.71,3.71,0,1,0,3.53,3.7A3.62,3.62,0,0,0,877.07,701.82Z" transform="translate(-767 -652.5)" fill="#060606"/></g><g style="isolation:isolate"><path d="M797,772.08a4.28,4.28,0,0,1-1.77-1.68,5,5,0,0,1-.63-2.52V761.7a4.9,4.9,0,0,1,.63-2.51,4.26,4.26,0,0,1,1.77-1.67,5.64,5.64,0,0,1,2.64-.6,5.72,5.72,0,0,1,2.63.59,4.25,4.25,0,0,1,1.78,1.62,4.52,4.52,0,0,1,.63,2.37V762a.22.22,0,0,1-.08.19.25.25,0,0,1-.18.08H801.8a.25.25,0,0,1-.18-.08.22.22,0,0,1-.08-.19v-.46a1.9,1.9,0,0,0-.53-1.38,1.85,1.85,0,0,0-1.41-.55,1.88,1.88,0,0,0-1.42.57,2.08,2.08,0,0,0-.53,1.49V768a2,2,0,0,0,.56,1.49,2,2,0,0,0,1.46.57,1.76,1.76,0,0,0,1.89-1.89v-1.36a.1.1,0,0,0-.11-.11h-1.72a.25.25,0,0,1-.18-.08.26.26,0,0,1-.08-.19v-2a.25.25,0,0,1,.08-.18.22.22,0,0,1,.18-.08h4.65a.27.27,0,0,1,.26.26v3.5a4.61,4.61,0,0,1-1.37,3.5,5.16,5.16,0,0,1-3.67,1.3A5.64,5.64,0,0,1,797,772.08Z" transform="translate(-767 -652.5)" fill="#060606"/><path d="M808.88,772.08a4.44,4.44,0,0,1-1.8-1.74,5.23,5.23,0,0,1-.64-2.61v-5.86a5.21,5.21,0,0,1,.64-2.59,4.44,4.44,0,0,1,1.8-1.74,6.08,6.08,0,0,1,5.35,0,4.4,4.4,0,0,1,1.81,1.74,5.2,5.2,0,0,1,.63,2.59v5.86a5.23,5.23,0,0,1-.63,2.61,4.4,4.4,0,0,1-1.81,1.74,6.08,6.08,0,0,1-5.35,0Zm4.14-2.65a2.23,2.23,0,0,0,.55-1.57v-6.07a2.27,2.27,0,0,0-.55-1.6,2.08,2.08,0,0,0-2.92,0,2.27,2.27,0,0,0-.55,1.6v6.07a2.23,2.23,0,0,0,.55,1.57,2.05,2.05,0,0,0,2.92,0Z" transform="translate(-767 -652.5)" fill="#060606"/><path d="M818.82,772.42a.25.25,0,0,1-.08-.18V757.36a.25.25,0,0,1,.08-.18.26.26,0,0,1,.19-.08h2.57a.27.27,0,0,1,.19.08.24.24,0,0,1,.07.18v12.37a.1.1,0,0,0,.11.11h5.9a.24.24,0,0,1,.19.08.24.24,0,0,1,.07.18v2.14a.24.24,0,0,1-.07.18.27.27,0,0,1-.19.08H819A.26.26,0,0,1,818.82,772.42Z" transform="translate(-767 -652.5)" fill="#060606"/><path d="M829.8,772.42a.25.25,0,0,1-.08-.18V757.36a.27.27,0,0,1,.26-.26h4.73a5.83,5.83,0,0,1,2.61.55,4.09,4.09,0,0,1,1.75,1.56,4.47,4.47,0,0,1,.62,2.36V768a4.47,4.47,0,0,1-.62,2.36,4.09,4.09,0,0,1-1.75,1.56,5.83,5.83,0,0,1-2.61.55H830A.25.25,0,0,1,829.8,772.42Zm3.13-2.58,1.81,0a1.67,1.67,0,0,0,1.32-.59,2.37,2.37,0,0,0,.52-1.55v-5.76a2.32,2.32,0,0,0-.5-1.58,1.72,1.72,0,0,0-1.34-.58h-1.81a.1.1,0,0,0-.11.11v9.86A.1.1,0,0,0,832.93,769.84Z" transform="translate(-767 -652.5)" fill="#060606"/><path d="M851,759.68a.24.24,0,0,1-.19.08h-5.9a.1.1,0,0,0-.11.11v3.43a.1.1,0,0,0,.11.11h3.68a.29.29,0,0,1,.19.08.25.25,0,0,1,.07.19v2.13a.25.25,0,0,1-.07.19.29.29,0,0,1-.19.08h-3.68a.1.1,0,0,0-.11.11v3.54a.1.1,0,0,0,.11.11h5.9a.24.24,0,0,1,.19.08.24.24,0,0,1,.07.18v2.14a.24.24,0,0,1-.07.18.27.27,0,0,1-.19.08H842a.26.26,0,0,1-.19-.08.25.25,0,0,1-.08-.18V757.36a.25.25,0,0,1,.08-.18.26.26,0,0,1,.19-.08h8.84a.27.27,0,0,1,.19.08.24.24,0,0,1,.07.18v2.14A.24.24,0,0,1,851,759.68Z" transform="translate(-767 -652.5)" fill="#060606"/><path d="M860.62,757.18a.26.26,0,0,1,.19-.08h2.55a.29.29,0,0,1,.19.08.24.24,0,0,1,.07.18v14.88a.24.24,0,0,1-.07.18.29.29,0,0,1-.19.08h-2.69a.3.3,0,0,1-.3-.2l-4.21-8.95c0-.05,0-.07-.08-.07s-.05,0-.05.09l0,8.87a.24.24,0,0,1-.07.18.27.27,0,0,1-.19.08h-2.55a.27.27,0,0,1-.19-.08.25.25,0,0,1-.08-.18V757.36a.25.25,0,0,1,.08-.18.27.27,0,0,1,.19-.08h2.66a.32.32,0,0,1,.31.2l4.2,9s.06.07.09.07,0,0,0-.09v-8.87A.25.25,0,0,1,860.62,757.18Z" transform="translate(-767 -652.5)" fill="#060606"/><path d="M877.27,757.18a.27.27,0,0,1,.19-.08H880a.26.26,0,0,1,.19.08.25.25,0,0,1,.08.18v14.88a.25.25,0,0,1-.08.18.26.26,0,0,1-.19.08h-2.57a.27.27,0,0,1-.19-.08.24.24,0,0,1-.07-.18v-6a.1.1,0,0,0-.11-.11h-3.52c-.08,0-.11,0-.11.11v6a.25.25,0,0,1-.08.18.26.26,0,0,1-.19.08h-2.57a.26.26,0,0,1-.19-.08.25.25,0,0,1-.08-.18V757.36a.25.25,0,0,1,.08-.18.26.26,0,0,1,.19-.08h2.57a.26.26,0,0,1,.19.08.25.25,0,0,1,.08.18v5.94c0,.08,0,.11.11.11h3.52a.1.1,0,0,0,.11-.11v-5.94A.24.24,0,0,1,877.27,757.18Z" transform="translate(-767 -652.5)" fill="#060606"/><path d="M891.82,759.68a.25.25,0,0,1-.19.08h-5.9a.1.1,0,0,0-.11.11v3.43a.1.1,0,0,0,.11.11h3.68a.25.25,0,0,1,.18.08.26.26,0,0,1,.08.19v2.13a.26.26,0,0,1-.08.19.25.25,0,0,1-.18.08h-3.68a.1.1,0,0,0-.11.11v3.54a.1.1,0,0,0,.11.11h5.9a.25.25,0,0,1,.19.08.24.24,0,0,1,.07.18v2.14a.24.24,0,0,1-.07.18.29.29,0,0,1-.19.08h-8.85a.27.27,0,0,1-.26-.26V757.36a.27.27,0,0,1,.26-.26h8.85a.29.29,0,0,1,.19.08.24.24,0,0,1,.07.18v2.14A.24.24,0,0,1,891.82,759.68Z" transform="translate(-767 -652.5)" fill="#060606"/><path d="M901.77,772.28l-.51-2.16a.1.1,0,0,0-.11-.08H897a.1.1,0,0,0-.11.08l-.51,2.16a.27.27,0,0,1-.28.22h-2.66c-.19,0-.27-.1-.22-.29l4-14.89a.28.28,0,0,1,.3-.22h3.19a.28.28,0,0,1,.31.22l4,14.89,0,.09c0,.13-.08.2-.24.2h-2.68A.29.29,0,0,1,901.77,772.28Zm-4.22-4.67a.13.13,0,0,0,.08,0h2.91l.09,0a.09.09,0,0,0,0-.1l-1.52-6.38c0-.06,0-.09-.07-.09s0,0-.06.09l-1.48,6.38A.1.1,0,0,0,897.55,767.61Z" transform="translate(-767 -652.5)" fill="#060606"/><path d="M913.56,772.28l-2.22-6.07c0-.06-.07-.09-.11-.09h-1.39a.1.1,0,0,0-.11.11v6a.24.24,0,0,1-.07.18.27.27,0,0,1-.19.08H906.9a.26.26,0,0,1-.19-.08.25.25,0,0,1-.08-.18V757.36a.25.25,0,0,1,.08-.18.26.26,0,0,1,.19-.08h5.36a4.5,4.5,0,0,1,2.31.58,4,4,0,0,1,1.57,1.64,5.26,5.26,0,0,1,.55,2.42,4.66,4.66,0,0,1-.62,2.44,3.73,3.73,0,0,1-1.74,1.54c-.07,0-.09.08-.06.16l2.5,6.31a.2.2,0,0,1,0,.11c0,.13-.09.2-.25.2h-2.68A.29.29,0,0,1,913.56,772.28Zm-3.83-12.41v3.76a.1.1,0,0,0,.11.11h1.92a1.76,1.76,0,0,0,1.32-.53,2,2,0,0,0,.5-1.45,2,2,0,0,0-.5-1.46,1.73,1.73,0,0,0-1.32-.54h-1.92A.1.1,0,0,0,909.73,759.87Z" transform="translate(-767 -652.5)" fill="#060606"/><path d="M928.31,757.18a.25.25,0,0,1,.08.18v2.16a.27.27,0,0,1-.08.19.24.24,0,0,1-.18.07h-3.35a.1.1,0,0,0-.11.11v12.35a.24.24,0,0,1-.07.18.29.29,0,0,1-.19.08h-2.58a.27.27,0,0,1-.26-.26V759.89a.1.1,0,0,0-.11-.11h-3.23a.25.25,0,0,1-.19-.07.27.27,0,0,1-.08-.19v-2.16a.25.25,0,0,1,.08-.18.26.26,0,0,1,.19-.08h9.9A.25.25,0,0,1,928.31,757.18Z" transform="translate(-767 -652.5)" fill="#060606"/><path d="M932,772.14a4.19,4.19,0,0,1-1.77-1.52,4.09,4.09,0,0,1-.63-2.26v-.57a.25.25,0,0,1,.08-.18.22.22,0,0,1,.19-.08h2.53a.22.22,0,0,1,.18.08.25.25,0,0,1,.08.18v.42a1.69,1.69,0,0,0,.57,1.29,2.24,2.24,0,0,0,1.54.51,1.78,1.78,0,0,0,1.31-.44,1.48,1.48,0,0,0,.45-1.12,1.39,1.39,0,0,0-.28-.87,3,3,0,0,0-.81-.68q-.51-.31-1.59-.87a19.24,19.24,0,0,1-2.16-1.23,5.28,5.28,0,0,1-1.43-1.47,4,4,0,0,1-.59-2.18,4.09,4.09,0,0,1,.6-2.23,4,4,0,0,1,1.71-1.48,5.89,5.89,0,0,1,2.51-.52,5.76,5.76,0,0,1,2.61.57,4.22,4.22,0,0,1,1.79,1.57,4.3,4.3,0,0,1,.63,2.33v.44a.24.24,0,0,1-.26.26h-2.53a.24.24,0,0,1-.26-.26v-.4a1.8,1.8,0,0,0-.55-1.32,2.09,2.09,0,0,0-1.5-.52,1.78,1.78,0,0,0-1.24.4,1.45,1.45,0,0,0-.45,1.14,1.47,1.47,0,0,0,.26.88,2.9,2.9,0,0,0,.81.71,18.66,18.66,0,0,0,1.68.89l.46.27a19.66,19.66,0,0,1,2,1.22,4.32,4.32,0,0,1,1.2,1.31,3.59,3.59,0,0,1,.48,1.91,4,4,0,0,1-1.35,3.18,5.31,5.31,0,0,1-3.6,1.18A6.16,6.16,0,0,1,932,772.14Z" transform="translate(-767 -652.5)" fill="#060606"/></g><g style="isolation:isolate"><path d="M817.54,791.86a2.72,2.72,0,0,1-.77-2v-4.52a2.66,2.66,0,0,1,.77-2,3.22,3.22,0,0,1,4.12,0,2.6,2.6,0,0,1,.78,2v.13a.13.13,0,0,1-.14.14l-.72,0c-.09,0-.14,0-.14-.13v-.19a1.73,1.73,0,0,0-1.84-1.82,1.8,1.8,0,0,0-1.33.49,1.78,1.78,0,0,0-.51,1.33v4.64a1.78,1.78,0,0,0,.51,1.33,2,2,0,0,0,2.66,0,1.77,1.77,0,0,0,.51-1.32v-.19c0-.09,0-.13.14-.13l.72,0a.13.13,0,0,1,.14.14v.1a2.62,2.62,0,0,1-.78,2,3.2,3.2,0,0,1-4.12,0Z" transform="translate(-767 -652.5)" fill="#060606"/><path d="M828.51,785.94a2.47,2.47,0,0,1,.56,1.7v4.72a.12.12,0,0,1-.14.14h-.71a.13.13,0,0,1-.14-.14v-4.58a1.72,1.72,0,0,0-.38-1.16,1.29,1.29,0,0,0-1-.43,1.35,1.35,0,0,0-1.06.44,1.67,1.67,0,0,0-.4,1.18v4.55a.13.13,0,0,1-.14.14h-.71a.12.12,0,0,1-.14-.14v-9.52a.12.12,0,0,1,.14-.14h.71a.13.13,0,0,1,.14.14v3.26a.05.05,0,0,0,0,0s0,0,0,0a1.88,1.88,0,0,1,1.68-.81A2,2,0,0,1,828.51,785.94Z" transform="translate(-767 -652.5)" fill="#060606"/><path d="M835,786a2.35,2.35,0,0,1,.64,1.71v4.7a.13.13,0,0,1-.14.14h-.72a.13.13,0,0,1-.14-.14v-.5a.08.08,0,0,0,0-.05s0,0-.05,0a1.84,1.84,0,0,1-.78.59,2.8,2.8,0,0,1-1.07.19,2.44,2.44,0,0,1-1.5-.47,1.83,1.83,0,0,1-.62-1.56,2.05,2.05,0,0,1,.72-1.7,3,3,0,0,1,2-.58h1.31s0,0,0-.06v-.53a1.68,1.68,0,0,0-.36-1.13,1.32,1.32,0,0,0-1-.41,1.41,1.41,0,0,0-.91.28,1.06,1.06,0,0,0-.44.72.13.13,0,0,1-.15.12l-.77,0a.14.14,0,0,1-.11,0,.12.12,0,0,1,0-.1,1.85,1.85,0,0,1,.77-1.31,2.67,2.67,0,0,1,1.64-.5A2.37,2.37,0,0,1,835,786Zm-.87,5.41a1.26,1.26,0,0,0,.51-1.07v-1.14a0,0,0,0,0,0,0h-1.24a2,2,0,0,0-1.27.37,1.26,1.26,0,0,0-.48,1.06,1.09,1.09,0,0,0,.37.91,1.44,1.44,0,0,0,.95.3A1.92,1.92,0,0,0,834.12,791.36Z" transform="translate(-767 -652.5)" fill="#060606"/><path d="M840.78,785.51a.14.14,0,0,1,.07.17l-.17.73c0,.09-.07.12-.17.08a1.3,1.3,0,0,0-.49-.09h-.17a1.3,1.3,0,0,0-1,.53,2,2,0,0,0-.4,1.26v4.16a.13.13,0,0,1-.14.14h-.72a.13.13,0,0,1-.14-.14v-6.8a.12.12,0,0,1,.14-.14h.72a.12.12,0,0,1,.14.14v.91s0,0,0,0l0,0a2,2,0,0,1,.64-.83,1.51,1.51,0,0,1,.94-.3A1.47,1.47,0,0,1,840.78,785.51Z" transform="translate(-767 -652.5)" fill="#060606"/><path d="M842.11,783.9a.78.78,0,0,1-.21-.56.74.74,0,0,1,.78-.78.75.75,0,0,1,.56.22.74.74,0,0,1,.23.56.79.79,0,0,1-.79.79A.78.78,0,0,1,842.11,783.9Zm0,8.46v-6.8a.12.12,0,0,1,.14-.14H843a.12.12,0,0,1,.14.14v6.8a.13.13,0,0,1-.14.14h-.72A.13.13,0,0,1,842.16,792.36Z" transform="translate(-767 -652.5)" fill="#060606"/><path d="M848,786.2h-1.33a.05.05,0,0,0-.06.06v4.2a1.28,1.28,0,0,0,.26.91,1.1,1.1,0,0,0,.83.26h.24a.13.13,0,0,1,.14.14v.59a.13.13,0,0,1-.14.14h-.43a2.21,2.21,0,0,1-1.39-.37,1.64,1.64,0,0,1-.47-1.38v-4.5a.05.05,0,0,0-.06-.06h-.7a.13.13,0,0,1-.14-.14v-.5a.12.12,0,0,1,.14-.14h.7a.05.05,0,0,0,.06-.06v-1.6a.12.12,0,0,1,.14-.14h.68a.13.13,0,0,1,.14.14v1.6a.05.05,0,0,0,.06.06H848a.12.12,0,0,1,.14.14v.5A.13.13,0,0,1,848,786.2Z" transform="translate(-767 -652.5)" fill="#060606"/><path d="M849.33,795.3v-.7a.13.13,0,0,1,.14-.14h0a1.68,1.68,0,0,0,.76-.17,1.14,1.14,0,0,0,.46-.54,6.37,6.37,0,0,0,.39-1.21s0,0,0-.08L849,785.57v0c0-.08,0-.11.14-.11h.76a.14.14,0,0,1,.15.12l1.53,5.59a0,0,0,0,0,0,0,.05.05,0,0,0,0,0l1.52-5.59a.15.15,0,0,1,.16-.12h.74a.12.12,0,0,1,.1,0s0,.06,0,.11l-2.28,7.55a6.6,6.6,0,0,1-.55,1.38,1.41,1.41,0,0,1-.69.62,3,3,0,0,1-1.17.18h-.18Z" transform="translate(-767 -652.5)" fill="#060606"/><path d="M863.71,783.57h-4.19a0,0,0,0,0,0,0v3.48a0,0,0,0,0,0,0h2.82a.13.13,0,0,1,.14.14v.59a.13.13,0,0,1-.14.14h-2.82s0,0,0,.06v4.28a.13.13,0,0,1-.14.14h-.72a.13.13,0,0,1-.14-.14v-9.52a.13.13,0,0,1,.14-.14h5.1a.13.13,0,0,1,.14.14v.59A.13.13,0,0,1,863.71,783.57Z" transform="translate(-767 -652.5)" fill="#060606"/><path d="M865.33,792.06a2.3,2.3,0,0,1-.79-1.49,13,13,0,0,1-.09-1.63,12.21,12.21,0,0,1,.09-1.59,2.24,2.24,0,0,1,.79-1.49,2.52,2.52,0,0,1,1.68-.56,2.55,2.55,0,0,1,1.69.56,2.28,2.28,0,0,1,.79,1.49,10.62,10.62,0,0,1,.09,1.59,11.13,11.13,0,0,1-.09,1.63,2.26,2.26,0,0,1-.79,1.49,2.55,2.55,0,0,1-1.69.55A2.52,2.52,0,0,1,865.33,792.06Zm2.7-.69a1.57,1.57,0,0,0,.5-1c0-.35.05-.83.05-1.43s0-1.09-.05-1.43a1.47,1.47,0,0,0-1.52-1.36,1.49,1.49,0,0,0-1,.37,1.62,1.62,0,0,0-.49,1,20.47,20.47,0,0,0,0,2.86,1.51,1.51,0,0,0,.48,1,1.6,1.6,0,0,0,2,0Z" transform="translate(-767 -652.5)" fill="#060606"/><path d="M875.26,785.42H876c.1,0,.14,0,.14.14v6.8a.12.12,0,0,1-.14.14h-.71a.13.13,0,0,1-.14-.14v-.55s0,0,0,0,0,0-.05,0a1.77,1.77,0,0,1-1.63.8,2.2,2.2,0,0,1-1.55-.56,2.12,2.12,0,0,1-.6-1.63v-4.85a.12.12,0,0,1,.14-.14h.71c.1,0,.14,0,.14.14v4.6a1.67,1.67,0,0,0,.37,1.16,1.3,1.3,0,0,0,1,.41,1.38,1.38,0,0,0,1.08-.44,1.71,1.71,0,0,0,.39-1.18v-4.55A.12.12,0,0,1,875.26,785.42Z" transform="translate(-767 -652.5)" fill="#060606"/><path d="M882.36,785.94a2.43,2.43,0,0,1,.57,1.7v4.72a.13.13,0,0,1-.14.14h-.71a.12.12,0,0,1-.14-.14v-4.58a1.72,1.72,0,0,0-.38-1.16,1.47,1.47,0,0,0-2.09,0,1.67,1.67,0,0,0-.4,1.18v4.55a.13.13,0,0,1-.14.14h-.72a.13.13,0,0,1-.14-.14v-6.8a.12.12,0,0,1,.14-.14h.72a.12.12,0,0,1,.14.14v.54s0,0,0,0,0,0,0,0a1.88,1.88,0,0,1,1.68-.81A2,2,0,0,1,882.36,785.94Z" transform="translate(-767 -652.5)" fill="#060606"/><path d="M888.73,782.7h.71a.13.13,0,0,1,.14.14v9.52a.13.13,0,0,1-.14.14h-.71a.12.12,0,0,1-.14-.14v-.56s0,0,0,0,0,0-.05,0a1.79,1.79,0,0,1-1.63.82,2,2,0,0,1-1.4-.47,2.88,2.88,0,0,1-.78-1.49,7.06,7.06,0,0,1-.18-1.62,8,8,0,0,1,.15-1.67,2.65,2.65,0,0,1,.78-1.54,2.16,2.16,0,0,1,1.5-.5,2.07,2.07,0,0,1,1,.2,1.53,1.53,0,0,1,.6.61s0,0,0,0a.05.05,0,0,0,0,0v-3.28A.12.12,0,0,1,888.73,782.7Zm-.17,6.26a5.77,5.77,0,0,0-.23-1.81,1.69,1.69,0,0,0-.45-.73,1.16,1.16,0,0,0-.76-.25,1.36,1.36,0,0,0-1.32,1,5.24,5.24,0,0,0-.26,1.84,5.36,5.36,0,0,0,.22,1.75,1.79,1.79,0,0,0,.5.78,1.25,1.25,0,0,0,.84.27,1.13,1.13,0,0,0,.79-.27,1.8,1.8,0,0,0,.46-.77A5.81,5.81,0,0,0,888.56,789Z" transform="translate(-767 -652.5)" fill="#060606"/><path d="M895.57,786a2.34,2.34,0,0,1,.63,1.71v4.7a.12.12,0,0,1-.14.14h-.71a.13.13,0,0,1-.14-.14v-.5a.08.08,0,0,0,0-.05s0,0-.05,0a1.94,1.94,0,0,1-.79.59,2.74,2.74,0,0,1-1.06.19,2.42,2.42,0,0,1-1.5-.47,1.84,1.84,0,0,1-.63-1.56,2.05,2.05,0,0,1,.72-1.7,3,3,0,0,1,2-.58h1.3a.05.05,0,0,0,.06-.06v-.53a1.68,1.68,0,0,0-.36-1.13,1.34,1.34,0,0,0-1.06-.41,1.4,1.4,0,0,0-.9.28,1.06,1.06,0,0,0-.44.72.13.13,0,0,1-.15.12l-.77,0a.14.14,0,0,1-.11,0,.12.12,0,0,1,0-.1,1.88,1.88,0,0,1,.76-1.31,2.72,2.72,0,0,1,1.65-.5A2.37,2.37,0,0,1,895.57,786Zm-.87,5.41a1.26,1.26,0,0,0,.51-1.07v-1.14s0,0-.06,0h-1.23a2,2,0,0,0-1.27.37,1.26,1.26,0,0,0-.48,1.06,1.09,1.09,0,0,0,.37.91,1.44,1.44,0,0,0,1,.3A1.94,1.94,0,0,0,894.7,791.36Z" transform="translate(-767 -652.5)" fill="#060606"/><path d="M900.68,786.2h-1.33s-.05,0-.05.06v4.2a1.24,1.24,0,0,0,.26.91,1.1,1.1,0,0,0,.83.26h.24a.13.13,0,0,1,.14.14v.59a.13.13,0,0,1-.14.14h-.44a2.18,2.18,0,0,1-1.38-.37,1.64,1.64,0,0,1-.48-1.38v-4.5a.05.05,0,0,0-.06-.06h-.69a.12.12,0,0,1-.14-.14v-.5c0-.1,0-.14.14-.14h.69a.05.05,0,0,0,.06-.06v-1.6a.13.13,0,0,1,.14-.14h.69a.13.13,0,0,1,.14.14v1.6s0,.06.05.06h1.33c.1,0,.14,0,.14.14v.5A.12.12,0,0,1,900.68,786.2Z" transform="translate(-767 -652.5)" fill="#060606"/><path d="M902.47,783.9a.75.75,0,0,1-.22-.56.79.79,0,1,1,1.57,0,.75.75,0,0,1-.23.56.8.8,0,0,1-1.12,0Zm0,8.46v-6.8c0-.1,0-.14.14-.14h.71a.12.12,0,0,1,.14.14v6.8a.13.13,0,0,1-.14.14h-.71A.12.12,0,0,1,902.52,792.36Z" transform="translate(-767 -652.5)" fill="#060606"/><path d="M906.34,792.06a2.31,2.31,0,0,1-.8-1.49,13.15,13.15,0,0,1-.08-1.63,12.38,12.38,0,0,1,.08-1.59,2.28,2.28,0,0,1,.79-1.49,2.83,2.83,0,0,1,3.38,0,2.33,2.33,0,0,1,.79,1.49,12.52,12.52,0,0,1,.08,1.59,13.14,13.14,0,0,1-.08,1.63,2.3,2.3,0,0,1-.79,1.49,2.56,2.56,0,0,1-1.69.55A2.52,2.52,0,0,1,906.34,792.06Zm2.69-.69a1.53,1.53,0,0,0,.5-1,13.32,13.32,0,0,0,.06-1.43,12.94,12.94,0,0,0-.06-1.43,1.56,1.56,0,0,0-.48-1,1.53,1.53,0,0,0-1-.37,1.49,1.49,0,0,0-1,.37,1.57,1.57,0,0,0-.49,1,17.07,17.07,0,0,0,0,2.86,1.42,1.42,0,0,0,.48,1,1.46,1.46,0,0,0,1,.37A1.43,1.43,0,0,0,909,791.37Z" transform="translate(-767 -652.5)" fill="#060606"/><path d="M916.65,785.94a2.43,2.43,0,0,1,.57,1.7v4.72a.13.13,0,0,1-.14.14h-.72a.13.13,0,0,1-.14-.14v-4.58a1.67,1.67,0,0,0-.38-1.16,1.28,1.28,0,0,0-1-.43,1.35,1.35,0,0,0-1.06.44,1.72,1.72,0,0,0-.4,1.18v4.55a.12.12,0,0,1-.14.14h-.71a.12.12,0,0,1-.14-.14v-6.8c0-.1,0-.14.14-.14h.71c.1,0,.14,0,.14.14v.54a.05.05,0,0,0,0,0s0,0,0,0a1.9,1.9,0,0,1,1.68-.81A2,2,0,0,1,916.65,785.94Z" transform="translate(-767 -652.5)" fill="#060606"/></g></svg>